<svg width="122" height="131" viewBox="0 0 122 131" fill="none" xmlns="http://www.w3.org/2000/svg">
<path d="M107.311 69.3652C107.311 18.9737 65.6925 11.0172 38.5156 23.4192C31.8528 27.1143 22.9228 35.2394 19.8838 42.3216C15.6317 52.236 23.1223 56.7851 24.4558 65.9287C26.0446 76.8101 26.6033 83.2508 34.6126 91.7255C54.806 113.084 89.4354 102.429 96.484 74.6643C99.5035 79.1984 101.152 83.247 98.5434 88.5021C94.669 96.3178 85.3101 103.764 77.4041 107.086C52.1468 117.698 23.7526 102.255 18.207 75.6258C17.1782 70.6904 17.8084 66.3374 15.5854 61.6503C14.9464 60.3022 13.8979 58.9749 13.2538 57.5067C8.08523 45.7197 13.8426 35.6026 21.9157 27.0753C43.5853 4.18275 80.3806 4.20532 101.586 27.8072C113.872 41.4807 107.311 69.3652 107.311 69.3652Z" fill="white"/>
<path d="M16.7289 72.4249C16.7289 112.208 67.0602 124.65 92.9659 100.802C96.565 97.4898 102.382 90.6972 103.317 85.8866C104.889 77.7963 99.5482 77.2212 98.2638 70.0845C98.2638 59.6103 92.01 45.9031 92.01 45.9031C79.1078 19.1595 35.9062 21.6255 26.0528 59.6103C22.9359 55.5593 20.9993 47.7281 23.417 42.8941C26.8509 36.0352 35.4976 28.7559 42.349 25.4534C68.3397 12.9319 98.548 28.6141 104.012 56.5628C104.679 59.9795 104.466 63.9639 105.445 67.1342C106.283 69.8509 108.197 72.0484 109.224 74.6693C114.169 87.3 106.541 98.374 97.4902 106.626C77.2129 125.109 46.4074 125.778 25.366 107.815C9.70787 94.4483 16.7289 72.4249 16.7289 72.4249Z" fill="white"/>
</svg>
